<?xml version="1.0" encoding="UTF-8"?> <svg xmlns="http://www.w3.org/2000/svg" width="62" height="62" viewBox="0 0 62 62" fill="none"> <circle cx="31" cy="31" r="31" fill="#BA7BE4"></circle> <path d="M28.3349 19.5248C29.0642 19.1792 29.8612 19 30.6682 19C31.4752 19 32.2722 19.1792 33.0015 19.5248L46.5404 25.9386C46.7762 26.0503 46.9759 26.2261 47.1164 26.4459C47.257 26.6658 47.3328 26.9207 47.3351 27.1817C47.3374 27.4426 47.2662 27.6989 47.1295 27.9212C46.9929 28.1435 46.7965 28.3228 46.5626 28.4386L33.0904 35.122C32.3376 35.4955 31.5086 35.6898 30.6682 35.6898C29.8278 35.6898 28.9988 35.4955 28.246 35.122L16.7793 29.4331V35.6664C16.7793 36.0348 16.633 36.388 16.3725 36.6485C16.1121 36.909 15.7588 37.0553 15.3904 37.0553C15.0221 37.0553 14.6688 36.909 14.4083 36.6485C14.1479 36.388 14.0015 36.0348 14.0015 35.6664V27.3331V27.2636C13.9886 26.9891 14.0571 26.7168 14.1985 26.4811C14.3398 26.2453 14.5477 26.0566 14.796 25.9386L28.3349 19.522V19.5248ZM19.5571 33.9136V38.4442C19.5571 38.6269 19.5932 38.8078 19.6633 38.9765C19.7334 39.1453 19.836 39.2985 19.9654 39.4275L19.971 39.4358L20.0349 39.4942L20.2015 39.6497C21.0721 40.4256 22.0132 41.1184 23.0126 41.7192C24.8682 42.8331 27.5488 43.9997 30.6682 43.9997C33.7876 43.9997 36.4682 42.8331 38.3265 41.7192C39.326 41.1184 40.2671 40.4256 41.1376 39.6497L41.3043 39.4942L41.3487 39.4497L41.3654 39.4331L41.3682 39.4303L41.3737 39.4275C41.5026 39.2983 41.6048 39.1449 41.6744 38.9762C41.744 38.8075 41.7796 38.6267 41.7793 38.4442V33.9109L34.3237 37.6108C33.1875 38.1743 31.9365 38.4675 30.6682 38.4675C29.3999 38.4675 28.1488 38.1743 27.0126 37.6108L19.5571 33.9109V33.9136Z" fill="white"></path> </svg> 