<?xml version="1.0" encoding="UTF-8"?> <svg xmlns="http://www.w3.org/2000/svg" width="1920" height="953" viewBox="0 0 1920 953" fill="none"> <path fill-rule="evenodd" clip-rule="evenodd" d="M-910 0L-790.2 52.4324C-670.4 106.737 -430.8 215.347 -191.2 305.232C48.4 395.116 288 466.274 527.6 520.579C767.2 574.884 1006.8 610.463 1246.4 574.884C1486 539.305 1725.6 430.695 1965.2 430.695C2204.8 430.695 2444.4 539.305 2564.2 591.737L2684 646.042V970H2564.2C2444.4 970 2204.8 970 1965.2 970C1725.6 970 1486 970 1246.4 970C1006.8 970 767.2 970 527.6 970C288 970 48.4 970 -191.2 970C-430.8 970 -670.4 970 -790.2 970H-910V0Z" fill="#FFD794"></path> </svg> 